<?xml version="1.0" encoding="utf-8"?>
<!-- Generator: Adobe Illustrator 25.0.1, SVG Export Plug-In . SVG Version: 6.00 Build 0)  -->
<svg version="1.1" id="Layer_1" xmlns="http://www.w3.org/2000/svg" xmlns:xlink="http://www.w3.org/1999/xlink" x="0px" y="0px"
	 viewBox="0 0 679.3 70.2" style="enable-background:new 0 0 679.3 70.2;" xml:space="preserve">
<style type="text/css">
	.st0{fill:#F3F3F3;}
	.st1{fill:#D8D8D8;}
	.st2{fill:#FFFFFF;}
</style>
<polygon class="st0" points="213.9,4.7 213.9,65.2 217.2,61.9 217.2,2 "/>
<polygon class="st0" points="243.4,68.5 242.4,65.2 246.1,61.9 "/>
<polygon class="st0" points="135.5,5.4 135.5,65.5 138.8,62.6 138.8,38 135.5,35.1 138.8,32.2 138.8,8.3 "/>
<polygon class="st0" points="167.3,68.4 166.3,65.5 169.2,62.6 "/>
<polygon class="st0" points="265.3,4.7 265.3,66.3 268.6,68 268.6,1.9 "/>
<polygon class="st0" points="368.6,2 365.3,4.7 365.3,35.8 368.6,32.9 "/>
<polygon class="st0" points="365.3,35.8 365.3,66.4 368.6,68 368.6,38.7 "/>
<polygon class="st0" points="411.4,4.7 411.4,66.4 414.7,68 414.7,2 "/>
<polygon class="st0" points="450.9,5.8 450.9,66.4 454.2,68 454.2,9 "/>
<polygon class="st0" points="473.3,2.5 470.2,5.8 472.2,9 "/>
<polygon class="st0" points="21.3,5.6 21.3,66.2 24.6,67.9 24.6,8.9 "/>
<polygon class="st0" points="43.7,2.3 40.6,5.6 42.6,8.9 "/>
<polygon class="st0" points="335.3,47.2 338,44.2 337.9,29.5 335.3,33.5 "/>
<polygon class="st0" points="341.1,44.6 344,41.2 343.4,63.4 340.9,61.3 "/>
<polygon class="st0" points="343.3,9.2 338.6,9.4 338.4,13.2 "/>
<polygon class="st0" points="65.2,1.9 61.9,4.6 61.9,35.8 65.2,32.9 "/>
<polygon class="st0" points="61.9,35.8 61.9,66.3 65.2,68 65.2,38.6 "/>
<polygon class="st0" points="107.9,4.6 107.9,66.3 111.2,68 111.2,1.9 "/>
<polygon class="st0" points="163.4,32.2 161.4,35.1 163.4,38 "/>
<polygon class="st0" points="165.3,2.5 164.4,5.4 167.1,8.3 "/>
<polygon class="st0" points="511.8,5.1 515.1,8.4 515.1,32.3 511.8,35.2 "/>
<polygon class="st0" points="515.1,38.1 511.8,35.2 511.8,66.1 515.1,62.8 "/>
<polygon class="st0" points="591.4,6.2 591.2,13.9 578.2,42.5 573.4,45.1 575.6,48.3 566.1,69.2 563.9,65.8 "/>
<polyline class="st0" points="591.3,6.2 618.8,65.8 623.1,67.5 591.6,0 "/>
<polygon class="st0" points="638.8,38.3 642.1,35.5 642.1,8.4 638.8,5.1 "/>
<polygon class="st0" points="642.1,41.1 638.8,38.3 638.8,66.2 642.1,67.9 "/>
<polygon class="st0" points="645.7,38.3 653,41.1 679.3,66 675.3,66.1 "/>
<path class="st1" d="M320.6,67c-0.5,0-1,0-1.5,0h-0.3c-0.5,0-0.9-0.1-1.4-0.1h-0.2c-0.4,0-0.9-0.1-1.3-0.2h-0.2
	c-0.5-0.1-0.9-0.2-1.4-0.2l-0.3-0.1l-1.4-0.3c-0.5-0.1-0.9-0.2-1.3-0.4l-0.7-0.2l-0.6-0.2l-0.9-0.3l-0.3-0.1l-1-0.4l0,0
	c-0.5-0.2-1.1-0.5-1.6-0.8l-0.1-0.2c-0.5-0.3-1-0.5-1.5-0.8l0,0c-1.5-0.9-3-1.9-4.3-3.1l-0.1-0.1c-0.4-0.3-0.8-0.7-1.2-1l-0.2-0.2
	c-0.4-0.3-0.7-0.7-1-1l-0.2-0.2c-0.6-0.7-1.3-1.4-1.8-2.2l-0.1-0.2l-0.7-1l-0.1-0.1c-0.2-0.3-0.5-0.7-0.7-1v-0.1
	c-0.2-0.4-0.5-0.8-0.7-1.1l0,0c-0.5-0.9-1-1.9-1.5-2.9l0,0c-1-2.3-1.7-4.7-2.2-7.1c0-0.2,0-0.3-0.1-0.5s-0.1-0.5-0.1-0.8l0,0
	c-0.1-0.9-0.2-1.8-0.3-2.8l0,0v-0.6c0-0.4,0-0.9,0-1.3h-3.9c0,19.1,15.5,34.6,34.6,34.6c0.2,0,0.4,0,0.6,0
	c8.1,0.1,16.1-2.2,22.8-6.7l-2.5-2C334.9,65.1,327.8,67,320.6,67z"/>
<polygon class="st1" points="638.8,38.3 642.1,41.1 644.2,41.1 645.7,38.3 642.1,38.3 "/>
<path class="st1" d="M656,38.3h-10.2l7.3,2.8h3c14.9,0,22.4-9,22.4-19.2H675C674.8,31.8,667,38.3,656,38.3z"/>
<path class="st1" d="M547.2,51.3c0,9.1-6.5,14.8-16.8,14.8h-18.6l-3.3,2.4h21.1c15.1,0,21.1-7.8,21.2-17.2L547.2,51.3z"/>
<polygon class="st1" points="210.6,68.5 213.9,65.2 242.4,65.2 243.4,68.5 "/>
<polygon class="st1" points="210.6,68.5 213.9,65.2 213.9,4.7 210.6,3 "/>
<polygon class="st1" points="268.6,68 265.3,66.4 262,69.1 "/>
<polygon class="st1" points="262,3 265.3,4.7 265.3,66.4 262,69.1 "/>
<polygon class="st1" points="368.6,68 365.3,66.4 362,69.1 "/>
<polygon class="st1" points="362,3 365.3,4.7 365.3,66.4 362,69.1 "/>
<polygon class="st1" points="414.7,68 411.4,66.4 408,69.1 "/>
<polygon class="st1" points="408,38.7 408,69.1 411.4,66.4 411.4,35.8 408.1,38.7 "/>
<polygon class="st1" points="408,3 408,32.9 408.1,32.9 411.4,35.8 411.4,4.7 "/>
<polygon class="st1" points="454.2,68 450.9,66.4 447.6,69.1 "/>
<polygon class="st1" points="447.6,9 450.9,5.8 450.9,66.4 447.6,69.1 "/>
<polygon class="st1" points="368.6,38.7 365.3,35.8 411.4,35.8 408.1,38.7 "/>
<polygon class="st1" points="429.6,9 432.7,5.8 430.7,2.5 "/>
<polygon class="st1" points="432.7,5.8 450.9,5.8 447.6,9 429.6,9 "/>
<polygon class="st1" points="454.2,9 450.9,5.8 470.2,5.8 472.2,9 "/>
<path class="st1" d="M320.6,4c-17.2-0.1-31.2,13.7-31.3,30.9c0,0.2,0,0.4,0,0.7h3.1C292.2,20,304.5,7.3,320,7.1c0.2,0,0.4,0,0.6,0
	c6.4,0,13.6,2.4,17.8,6.2l0.2-3.8C333.2,5.9,327,4,320.6,4z"/>
<polygon class="st1" points="335.3,33.5 335.3,47.2 332,50.9 332,32.5 "/>
<polygon class="st1" points="335.3,47.2 341.1,44.6 340.9,61.3 338.3,59.1 338.2,48.2 332,50.9 "/>
<polygon class="st1" points="132.2,68.4 135.5,65.5 166.3,65.5 167.3,68.4 "/>
<polygon class="st1" points="132.2,68.4 135.5,65.5 135.5,5.4 132.2,2.5 "/>
<polygon class="st1" points="24.6,67.9 21.3,66.2 18,68.9 "/>
<polygon class="st1" points="18,8.9 21.3,5.6 21.3,66.2 18,68.9 "/>
<polygon class="st1" points="0,8.9 3.1,5.6 1.1,2.3 "/>
<polygon class="st1" points="3.1,5.6 21.3,5.6 18,8.9 0,8.9 "/>
<polygon class="st1" points="24.6,8.9 21.3,5.6 40.6,5.6 42.6,8.9 "/>
<path class="st1" d="M528.5,38.1c6.8,0,15.4,2.4,15.4,13.2h3.3c0-10.3-7.8-16.1-19.7-16.1h-15.8l3.4,2.9H528.5z"/>
<polygon class="st1" points="65.2,68 61.9,66.3 58.6,69 "/>
<polygon class="st1" points="58.6,2.9 61.9,4.6 61.9,66.3 58.6,69 "/>
<polygon class="st1" points="111.2,68 107.9,66.3 104.6,69 "/>
<polygon class="st1" points="104.6,38.6 104.6,69 107.9,66.3 107.9,35.8 104.7,38.6 "/>
<polygon class="st1" points="104.6,2.9 104.6,32.9 104.7,32.9 107.9,35.8 107.9,4.6 "/>
<polygon class="st1" points="65.2,38.6 61.9,35.8 107.9,35.8 104.7,38.6 "/>
<polygon class="st1" points="167.1,8.3 164.4,5.4 135.5,5.4 138.8,8.3 "/>
<polygon class="st1" points="135.5,35.1 138.8,38 163.4,38 161.4,35.1 "/>
<polygon class="st1" points="511.8,5.1 508.4,2.6 508.4,68.5 511.8,66.1 "/>
<path class="st1" d="M526.6,8.5c7.7,0,13.5,3.5,13.5,11.5v0.2h3.3c0-0.1,0-0.2,0-0.2c0-9.1-6.5-14.8-16.8-14.8h-14.9l3.3,3.3H526.6z
	"/>
<path class="st1" d="M543.5,20.2c-0.1,7.1-4.3,13.6-13.5,14.8l7-0.5c5.2-2.3,9.9-7.5,10-14.3L543.5,20.2z"/>
<polygon class="st1" points="559.6,67.5 563.9,65.8 566.1,69.2 "/>
<polygon class="st1" points="559.6,67.5 591.2,0 591.6,0 591.4,6.2 563.9,65.8 "/>
<polygon class="st1" points="623.1,67.5 618.8,65.8 616.6,69.2 "/>
<polygon class="st1" points="591.3,6.2 591.2,13.9 591.4,13.9 604.5,42.5 609.3,45.1 607.1,48.3 616.6,69.2 618.8,65.8 "/>
<polygon class="st1" points="575.6,48.3 573.4,45.1 609.3,45.1 607.1,48.3 "/>
<path class="st1" d="M642.1,8.4h14.4c9.2,0,15.2,5,15.2,13.1c0,0.1,0,0.2,0,0.4h3.3c0-0.1,0-0.2,0-0.4c0.1-4.6-1.8-9.1-5.3-12.1
	c-3.3-2.8-7.9-4.3-13.2-4.3h-17.7L642.1,8.4z"/>
<polygon class="st1" points="642.1,67.9 638.8,66.2 635.5,69 "/>
<polygon class="st1" points="638.8,66.2 638.8,5.1 635.5,2.6 635.5,69 "/>
<polygon class="st1" points="644.2,41.1 645.7,38.3 675.3,66.1 674.9,70.2 "/>
<polygon class="st1" points="674.9,70.2 679.3,66 675.3,66.1 "/>
<path class="st2" d="M540.2,20.2c-0.1,10.5-8.6,12.2-13.5,12.2h-11.5l-3.3,2.9h14.9c11.5,0,16.7-7.1,16.8-15L540.2,20.2z"/>
<path class="st2" d="M343.3,9.2c-6.8-5.4-14.3-8.4-22.8-8.4c-19.1-0.3-34.9,14.9-35.2,34c0,0.2,0,0.4,0,0.6h3.9
	C289,18.3,302.7,4.2,319.9,4c0.2,0,0.4,0,0.7,0c6.4,0,12.7,1.9,18,5.5L343.3,9.2z"/>
<path class="st2" d="M338.3,59.1c-2.2,1.3-7.8,4.7-17.8,4.7c-15.5,0.1-28.1-12.3-28.2-27.8c0-0.2,0-0.4,0-0.6h-3.1
	C289,52.6,302.7,66.7,319.9,67c0.2,0,0.4,0,0.7,0c7.2,0,14.2-1.9,20.4-5.6L338.3,59.1z"/>
<polygon class="st2" points="210.6,3 213.9,4.7 217.2,2 "/>
<polygon class="st2" points="213.9,65.2 242.4,65.2 246.1,61.9 217.2,61.9 "/>
<polygon class="st2" points="262,3 265.3,4.7 268.6,2 "/>
<polygon class="st2" points="408,3 411.4,4.7 414.7,2 "/>
<polygon class="st2" points="362,3 365.3,4.7 368.6,2 "/>
<polygon class="st2" points="365.3,35.8 411.4,35.8 408.1,32.9 368.6,32.9 "/>
<polygon class="st2" points="430.7,2.5 432.7,5.8 470.2,5.8 473.3,2.5 "/>
<path class="st2" d="M343.3,9.2c-6.8-5.4-14.3-8.4-22.8-8.4V4c6.4,0,12.7,1.9,18,5.5L343.3,9.2z"/>
<polygon class="st2" points="332,32.5 335.3,33.5 337.9,29.5 "/>
<polygon class="st2" points="338,44.2 344,41.2 341.1,44.6 335.3,47.2 "/>
<polygon class="st2" points="132.2,2.5 135.5,5.4 164.4,5.4 165.3,2.5 "/>
<polygon class="st2" points="135.5,65.5 166.3,65.5 169.2,62.6 138.8,62.6 "/>
<polygon class="st2" points="1.1,2.3 3.1,5.6 40.6,5.6 43.7,2.3 "/>
<polygon class="st2" points="104.6,2.9 107.9,4.6 111.2,1.9 "/>
<polygon class="st2" points="58.6,2.9 61.9,4.6 65.2,1.9 "/>
<polygon class="st2" points="61.9,35.8 107.9,35.8 104.7,32.9 65.2,32.9 "/>
<polygon class="st2" points="135.5,35.1 138.8,32.2 163.4,32.2 161.4,35.1 "/>
<path class="st2" d="M515.1,5.1h11.6c10.4,0,16.8,5.7,16.8,14.8c0,0.1,0,0.2,0,0.2h3.5V20c0-10-7.1-17.4-21.2-17.4h-17.4l3.3,2.5
	H515.1z"/>
<path class="st2" d="M530.4,62.8h-15.2l-3.3,3.3h18.6c10.4,0,16.8-5.7,16.8-14.8h-3.3C543.9,59.2,538,62.8,530.4,62.8z"/>
<path class="st2" d="M547.2,51.3h3.5c0,0,0-0.1,0-0.1c0-9-6.4-14.8-13.7-16.6l-7,0.5c-1.1,0.1-2.2,0.2-3.3,0.2h0.9
	C539.4,35.2,547.2,41,547.2,51.3z"/>
<polygon class="st2" points="573.4,45.1 578.2,42.5 604.5,42.5 609.3,45.1 "/>
<path class="st2" d="M671.7,21.8c-0.2,8.3-6.6,13.6-15.7,13.6h-13.9l-3.3,2.8H656c11,0,18.8-6.5,19-16.5H671.7z"/>
<path class="st2" d="M642.1,5.1h14.4c5.4,0,9.9,1.5,13.2,4.3c3.5,3,5.4,7.5,5.3,12.2c0,0.1,0,0.2,0,0.4h3.4
	c0-10.2-6.5-19.2-21.9-19.2h-21l3.3,2.5L642.1,5.1z"/>
</svg>
