<?xml version="1.0" encoding="utf-8"?>
<!-- Generator: Adobe Illustrator 24.2.1, SVG Export Plug-In . SVG Version: 6.00 Build 0)  -->
<svg version="1.1" id="Layer_1" xmlns="http://www.w3.org/2000/svg" xmlns:xlink="http://www.w3.org/1999/xlink" x="0px" y="0px"
	 viewBox="0 0 588.1 198.4" style="enable-background:new 0 0 588.1 198.4;" xml:space="preserve">
<style type="text/css">
	.st0{fill:#FFFFFF;}
</style>
<path class="st0" d="M477.1,38.3l2.3-13.4h87.3l-2.3,13.4h-36.8v120.8l-13.6,2.3V38.3H477.1z M338.5,25.9l13.6-2.1v63.6h81V25.9
	l13.4-2.1v135.3l-13.4,2.3V99.2h-81v59.9l-13.6,2.3V25.9z M304.2,161.1l1.1-31.8l-12.2,6.1V105h-12.2v50.7l12.6-6.3l0.4,11.7
	l-4.6-0.2l10.1,16.1l9.4-16.1L304.2,161.1z M189.1,92.5c0-32,24.7-58.2,57.8-58.2c13,0,28,5,36.6,12.6l10.1-8.2
	c-14-11.1-29.3-17.2-46.7-17.2c-43.6,0-72.2,34.7-72.2,71s28.5,71,72.2,71c9.8,0,19-1.9,27.6-5.5v-13.6c-8.2,3.8-17.8,6.3-27.6,6.3
	C213.8,150.7,189.1,124.5,189.1,92.5 M126.9,25.9l13.6-2.1v135.3l-13.6,2.3V25.9z M35,23.8v122.9h59.3l-5.6,13.6H21.4V25.9L35,23.8z
	"/>
</svg>
